<svg width="17" height="17" viewBox="0 0 17 17" fill="none" xmlns="http://www.w3.org/2000/svg">
<g clip-path="url(#clip0)">
<path d="M8.55981 16.5C12.9781 16.5 16.5598 12.9183 16.5598 8.5C16.5598 4.08172 12.9781 0.5 8.55981 0.5C4.14154 0.5 0.559814 4.08172 0.559814 8.5C0.559814 12.9183 4.14154 16.5 8.55981 16.5Z" fill="white"/>
<path d="M8.21191 8.49992H16.5597C16.5597 7.77786 16.4635 7.07837 16.2841 6.41296H8.21191V8.49992Z" fill="#D80027"/>
<path d="M8.21191 4.3261H15.3855C14.8958 3.52698 14.2697 2.82064 13.5396 2.23914H8.21191V4.3261Z" fill="#D80027"/>
<path d="M8.55995 16.5C10.4427 16.5 12.1733 15.8493 13.5398 14.7609H3.58008C4.94664 15.8493 6.67717 16.5 8.55995 16.5Z" fill="#D80027"/>
<path d="M1.73404 12.6739H15.3857C15.7788 12.0324 16.0837 11.3312 16.2843 10.587H0.835449C1.03598 11.3312 1.34089 12.0324 1.73404 12.6739Z" fill="#D80027"/>
<path d="M4.26556 1.74931H4.9946L4.31647 2.24197L4.5755 3.03912L3.89741 2.54647L3.21931 3.03912L3.44306 2.35047C2.846 2.84781 2.32269 3.4305 1.89144 4.07975H2.12503L1.69338 4.39334C1.62613 4.50553 1.56163 4.6195 1.49981 4.73516L1.70594 5.36956L1.32138 5.09016C1.22578 5.29269 1.13835 5.49978 1.05975 5.71119L1.28685 6.41019H2.12503L1.44691 6.90284L1.70594 7.7L1.02785 7.20734L0.621658 7.50247C0.581002 7.82928 0.559814 8.16216 0.559814 8.5H8.55981C8.55981 4.08175 8.55981 3.56087 8.55981 0.5C6.97944 0.5 5.50622 0.958438 4.26556 1.74931ZM4.5755 7.7L3.89741 7.20734L3.21931 7.7L3.47835 6.90284L2.80022 6.41019H3.63841L3.89741 5.61303L4.15641 6.41019H4.9946L4.31647 6.90284L4.5755 7.7ZM4.31647 4.57241L4.5755 5.36956L3.89741 4.87691L3.21931 5.36956L3.47835 4.57241L2.80022 4.07975H3.63841L3.89741 3.28259L4.15641 4.07975H4.9946L4.31647 4.57241ZM7.44506 7.7L6.76697 7.20734L6.08888 7.7L6.34791 6.90284L5.66978 6.41019H6.50797L6.76697 5.61303L7.02597 6.41019H7.86416L7.18603 6.90284L7.44506 7.7ZM7.18603 4.57241L7.44506 5.36956L6.76697 4.87691L6.08888 5.36956L6.34791 4.57241L5.66978 4.07975H6.50797L6.76697 3.28259L7.02597 4.07975H7.86416L7.18603 4.57241ZM7.18603 2.24197L7.44506 3.03912L6.76697 2.54647L6.08888 3.03912L6.34791 2.24197L5.66978 1.74931H6.50797L6.76697 0.952156L7.02597 1.74931H7.86416L7.18603 2.24197Z" fill="#0068C8"/>
</g>
<defs>
<clipPath id="clip0">
<rect width="16" height="16" fill="white" transform="translate(0.559814 0.5)"/>
</clipPath>
</defs>
</svg>
