<svg width="101" height="101" fill="none" xmlns="http://www.w3.org/2000/svg">
    <path fill="" d="M.333.667h100v100h-100z"/>
    <path d="M29.171 87.112c-.746.597-1.641.895-2.636.895-2.337 0-3.929-1.641-3.929-4.028 0-2.388 1.542-4.029 3.73-4.029.995 0 1.79.249 2.487.746l.597-.994c-.746-.647-1.84-.995-3.134-.995-1.541 0-2.834.547-3.73 1.542-.795.945-1.293 2.288-1.293 3.73 0 3.133 2.09 5.272 5.173 5.272 1.293 0 2.536-.448 3.232-1.144l-.497-.995zM35.835 78.707c-1.442 0-2.785.547-3.73 1.542-.945.945-1.492 2.288-1.492 3.73 0 3.034 2.188 5.272 5.222 5.272 1.443 0 2.785-.547 3.73-1.493.945-.944 1.492-2.287 1.492-3.78 0-3.033-2.188-5.271-5.222-5.271zm3.88 5.272c0 2.337-1.642 4.028-3.88 4.028-1.044 0-2.039-.398-2.735-1.144-.696-.746-1.094-1.79-1.094-2.884 0-1.144.398-2.189 1.094-2.885.696-.746 1.69-1.144 2.735-1.144 2.188 0 3.88 1.741 3.88 4.029zM44.24 78.856h-1.293v10.245h1.293V78.856zM54.137 78.856v8.007l-6.316-8.007h-1.044v10.245h1.243v-7.957l6.316 7.957h1.045V78.856h-1.244zM62.84 83.929c-.447-.497-1.094-.796-1.79-.845l2.338-3.233v-.945h-5.62v1.243h3.979l-2.537 3.83h.249c1.74 0 2.884.845 2.884 2.138 0 1.094-.895 1.99-1.989 1.99-.945 0-1.74-.498-2.337-1.343v-.05l-.697.895c.647 1.244 2.04 1.741 3.084 1.741 1.89 0 3.232-1.343 3.232-3.183-.05-.945-.298-1.69-.795-2.238zM68.61 82.785c-1.045 0-1.84.448-2.338 1.243.547-2.586 2.387-3.928 4.029-4.326h.05l-.498-.945c-1.194.298-2.437 1.094-3.332 2.188a7.098 7.098 0 00-1.641 4.576c0 1.044.348 1.989.945 2.635.646.746 1.541 1.144 2.636 1.144 1.541 0 3.183-1.243 3.183-3.332-.1-1.84-1.343-3.183-3.034-3.183zm1.641 3.233c0 1.144-.846 1.99-1.89 1.99s-2.238-.647-2.238-2.537c.249-.796.995-1.542 2.089-1.542 1.243 0 2.039.796 2.039 2.089zM76.12 78.757c-2.139 0-3.333 1.84-3.333 5.222 0 1.591.25 2.884.796 3.78.597.994 1.442 1.442 2.537 1.442 2.138 0 3.282-1.84 3.282-5.222.05-3.382-1.144-5.222-3.282-5.222zm2.039 5.222c0 2.785-.647 4.078-1.99 4.078-1.392 0-2.088-1.393-2.088-4.078 0-2.736.646-4.078 2.039-4.078 1.392 0 2.039 1.293 2.039 4.078z" fill="#DCDCDC"/>
    <path d="M57.485 14.65H21.86v56.916h35.625V14.65z" fill="#8CBF84"/>
    <path d="M78.86 14.65H64.61v35.573h14.25V14.65z" fill="#DE7875"/>
    <path d="M78.86 57.42H64.61v14.23h14.25V57.42z" fill="#DCDCDC"/>
</svg>