<svg width="17" height="16" fill="none" xmlns="http://www.w3.org/2000/svg"><g clip-path="url(#clip0)"><path d="M8.56 16a8 8 0 1 0 0-16 8 8 0 0 0 0 16z" fill="#6DA544"/><path d="M8.56 3.13L15.168 8 8.56 12.87 1.95 8 8.56 3.13z" fill="#FFDA44"/><path d="M8.56 10.783a2.783 2.783 0 1 0 0-5.566 2.783 2.783 0 0 0 0 5.566z" fill="#fff"/><path d="M7.168 7.826c-.483 0-.95.074-1.39.21a2.782 2.782 0 0 0 5.06 1.56 4.69 4.69 0 0 0-3.67-1.77zM11.29 8.533a2.783 2.783 0 0 0-5.288-1.631 5.74 5.74 0 0 1 5.289 1.631z" fill="#0068C8"/></g><defs><clipPath id="clip0"><path fill="#fff" transform="translate(.56)" d="M0 0h16v16H0z"/></clipPath></defs></svg>