<svg width="17" height="17" fill="none" xmlns="http://www.w3.org/2000/svg"><path d="M8.56 16.5a8 8 0 1 0 0-16 8 8 0 0 0 0 16z" fill="#EC9F46"/><path d="M10.96 8.786c.303-.205.523-.513.619-.867.311-1.166-.194-2.05-1.348-2.358l.375-1.402a.097.097 0 0 0-.067-.118l-.556-.147a.097.097 0 0 0-.118.063L9.49 5.359l-.737-.198.371-1.398a.097.097 0 0 0-.067-.118l-.552-.147a.097.097 0 0 0-.118.063l-.379 1.402-1.57-.421a.097.097 0 0 0-.114.067l-.152.56c-.012.05.017.106.068.118l.092.026a.77.77 0 0 1 .54.943l-.8 2.985a.77.77 0 0 1-.872.56.097.097 0 0 0-.101.05l-.29.523a.097.097 0 0 0 0 .084c.008.03.029.05.058.054l1.545.417-.374 1.402a.093.093 0 0 0 .067.114l.556.147a.1.1 0 0 0 .118-.067l.374-1.398.742.198-.38 1.402c-.008.05.022.101.068.114l.556.147c.05.013.105-.016.118-.067l.379-1.398.366.097c1.154.312 2.034-.202 2.345-1.368a1.515 1.515 0 0 0-.387-1.466zM8.45 6.281l1.112.295a.77.77 0 0 1-.4 1.49L8.05 7.771l.4-1.49zm.48 4.126l-1.478-.4.4-1.49 1.478.396a.77.77 0 0 1-.4 1.49v.004z" fill="#fff"/></svg>