<svg width="17" height="17" viewBox="0 0 17 17" fill="none" xmlns="http://www.w3.org/2000/svg">
<g clip-path="url(#clip0)">
<path d="M8.55981 16.5C12.9781 16.5 16.5598 12.9183 16.5598 8.5C16.5598 4.08172 12.9781 0.5 8.55981 0.5C4.14154 0.5 0.559814 4.08172 0.559814 8.5C0.559814 12.9183 4.14154 16.5 8.55981 16.5Z" fill="white"/>
<path d="M16.5598 8.50001C16.5598 5.32832 14.7141 2.58782 12.0381 1.29382V15.7062C14.7141 14.4122 16.5598 11.6717 16.5598 8.50001Z" fill="#D80027"/>
<path d="M0.559814 8.50001C0.559814 11.6717 2.4056 14.4122 5.08156 15.7062V1.29382C2.4056 2.58782 0.559814 5.32832 0.559814 8.50001Z" fill="#D80027"/>
<path d="M9.95101 9.54356L11.3423 8.8479L10.6467 8.50009V7.80443L9.25535 8.50009L9.95101 7.10878H9.25535L8.55969 6.06531L7.86404 7.10878H7.16838L7.86404 8.50009L6.47272 7.80443V8.50009L5.7771 8.8479L7.16838 9.54356L6.82057 10.2392H8.21188V11.2827H8.90751V10.2392H10.2988L9.95101 9.54356Z" fill="#D80027"/>
</g>
<defs>
<clipPath id="clip0">
<rect width="16" height="16" fill="white" transform="translate(0.559814 0.5)"/>
</clipPath>
</defs>
</svg>
