<svg width="17" height="17" viewBox="0 0 17 17" fill="none" xmlns="http://www.w3.org/2000/svg">
<g clip-path="url(#clip0)">
<path d="M8.55981 16.5C12.9781 16.5 16.5598 12.9183 16.5598 8.5C16.5598 4.08172 12.9781 0.5 8.55981 0.5C4.14154 0.5 0.559814 4.08172 0.559814 8.5C0.559814 12.9183 4.14154 16.5 8.55981 16.5Z" fill="#D80027"/>
<path d="M4.93794 5.36865L5.62856 7.49365H7.86294L6.05669 8.80928L6.74731 10.9343L4.93794 9.62178L3.12856 10.9343L3.82231 8.80928L2.01294 7.49365H4.24731L4.93794 5.36865Z" fill="#FFDA44"/>
<path d="M10.0443 12.8906L9.51616 12.2406L8.73491 12.5437L9.18803 11.8406L8.65991 11.1875L9.46928 11.4031L9.92553 10.7L9.96928 11.5375L10.7818 11.7531L9.9974 12.0531L10.0443 12.8906Z" fill="#FFDA44"/>
<path d="M11.0943 10.9843L11.3443 10.1843L10.6599 9.69995L11.4974 9.68745L11.7443 8.88745L12.0162 9.6812L12.8537 9.67183L12.1818 10.1718L12.4505 10.9656L11.7662 10.4812L11.0943 10.9843Z" fill="#FFDA44"/>
<path d="M12.5097 6.37179L12.141 7.12491L12.741 7.70929L11.9128 7.59054L11.5441 8.34054L11.4003 7.51554L10.5691 7.39679L11.3128 7.00616L11.1691 6.17804L11.7691 6.76241L12.5097 6.37179Z" fill="#FFDA44"/>
<path d="M10.066 4.09058L10.0035 4.92495L10.7816 5.24058L9.96602 5.44058L9.90664 6.27808L9.46602 5.56558L8.65039 5.76558L9.19102 5.12495L8.74727 4.41558L9.52539 4.7312L10.066 4.09058Z" fill="#FFDA44"/>
</g>
<defs>
<clipPath id="clip0">
<rect width="16" height="16" fill="white" transform="translate(0.559814 0.5)"/>
</clipPath>
</defs>
</svg>
