<svg width="17" height="17" viewBox="0 0 17 17" fill="none" xmlns="http://www.w3.org/2000/svg">
<path d="M8.55981 16.5C4.14131 16.5 0.559814 12.9185 0.559814 8.5C0.559814 4.0815 4.14131 0.5 8.55981 0.5C12.9783 0.5 16.5598 4.0815 16.5598 8.5C16.5598 12.9185 12.9783 16.5 8.55981 16.5Z" fill="white"/>
<path opacity="0.600006" d="M8.55872 6.99512L5.01196 8.60721L8.55872 10.7037L12.1055 8.60721L8.55872 6.99512Z" fill="#010101"/>
<path opacity="0.449997" d="M5.01196 8.60718L8.55872 10.7037V6.99509V2.72223L5.01196 8.60718Z" fill="#010101"/>
<path opacity="0.800003" d="M8.55884 2.72223V6.99509V10.7037L12.1056 8.60718L8.55884 2.72223Z" fill="#010101"/>
<path opacity="0.449997" d="M5.01196 9.27972L8.55872 14.2777V11.3751L5.01196 9.27972Z" fill="#010101"/>
<path opacity="0.800003" d="M8.55884 11.3752V14.2778L12.1077 9.27979L8.55884 11.3752Z" fill="#010101"/>
</svg>
