<svg width="17" height="17" viewBox="0 0 17 17" fill="none" xmlns="http://www.w3.org/2000/svg">
<g clip-path="url(#clip0)">
<path d="M8.55981 16.5C12.9781 16.5 16.5598 12.9183 16.5598 8.5C16.5598 4.08172 12.9781 0.5 8.55981 0.5C4.14154 0.5 0.559814 4.08172 0.559814 8.5C0.559814 12.9183 4.14154 16.5 8.55981 16.5Z" fill="#0068C8"/>
<path d="M8.55983 3.63049L8.81886 4.42765H9.65697L8.97889 4.92031L9.23792 5.71747L8.55983 5.22478L7.88171 5.71747L8.14074 4.92031L7.46265 4.42765H8.3008L8.55983 3.63049Z" fill="#FFDA44"/>
<path d="M5.11639 5.05667L5.86327 5.43717L6.45592 4.84454L6.32477 5.67236L7.07161 6.05289L6.24377 6.18401L6.11264 7.01189L5.73211 6.26504L4.9043 6.3962L5.49695 5.80354L5.11639 5.05667Z" fill="#FFDA44"/>
<path d="M3.69019 8.50009L4.48734 8.24105V7.40289L4.97997 8.08102L5.77715 7.82199L5.28444 8.50009L5.77715 9.17819L4.97997 8.91918L4.48734 9.59728V8.75912L3.69019 8.50009Z" fill="#FFDA44"/>
<path d="M5.11639 11.9434L5.49692 11.1965L4.9043 10.6039L5.73214 10.7351L6.11261 9.98822L6.24377 10.8161L7.07158 10.9472L6.32483 11.3277L6.45592 12.1555L5.86327 11.5629L5.11639 11.9434Z" fill="#FFDA44"/>
<path d="M8.55983 13.3696L8.30077 12.5725H7.46265L8.14077 12.0798L7.88171 11.2827L8.55983 11.7753L9.23792 11.2827L8.97889 12.0798L9.65697 12.5725H8.81882L8.55983 13.3696Z" fill="#FFDA44"/>
<path d="M12.003 11.9434L11.2562 11.5629L10.6635 12.1556L10.7946 11.3277L10.0479 10.9472L10.8757 10.8161L11.0068 9.98822L11.3873 10.7351L12.2151 10.6039L11.6224 11.1966L12.003 11.9434Z" fill="#FFDA44"/>
<path d="M13.4292 8.50009L12.632 8.75912V9.59728L12.1394 8.91915L11.3423 9.17819L11.8349 8.50009L11.3423 7.82199L12.1394 8.08102L12.632 7.40289V8.24109L13.4292 8.50009Z" fill="#FFDA44"/>
<path d="M12.003 5.0567L11.6225 5.80357L12.2151 6.39623L11.3873 6.26504L11.0068 7.01189L10.8757 6.18404L10.0479 6.05289L10.7946 5.67239L10.6635 4.8446L11.2562 5.43723L12.003 5.0567Z" fill="#FFDA44"/>
</g>
<defs>
<clipPath id="clip0">
<rect width="16" height="16" fill="white" transform="translate(0.559814 0.5)"/>
</clipPath>
</defs>
</svg>
