<svg width="17" height="17" viewBox="0 0 17 17" fill="none" xmlns="http://www.w3.org/2000/svg">
<g clip-path="url(#clip0)">
<path d="M8.55981 16.5C12.9781 16.5 16.5598 12.9183 16.5598 8.5C16.5598 4.08172 12.9781 0.5 8.55981 0.5C4.14154 0.5 0.559814 4.08172 0.559814 8.5C0.559814 12.9183 4.14154 16.5 8.55981 16.5Z" fill="white"/>
<path d="M2.21361 3.62946C1.5852 4.44705 1.11136 5.38939 0.835449 6.41311H4.99726L2.21361 3.62946Z" fill="#0068C8"/>
<path d="M16.2843 6.41315C16.0084 5.38946 15.5345 4.44711 14.9062 3.62952L12.1226 6.41315H16.2843Z" fill="#0068C8"/>
<path d="M0.835449 10.5871C1.11139 11.6108 1.58523 12.5531 2.21361 13.3707L4.99717 10.5871H0.835449Z" fill="#0068C8"/>
<path d="M13.4304 2.15382C12.6128 1.52542 11.6704 1.05157 10.6467 0.775635V4.93742L13.4304 2.15382Z" fill="#0068C8"/>
<path d="M3.68921 14.8462C4.5068 15.4747 5.44915 15.9485 6.47283 16.2244V12.0627L3.68921 14.8462Z" fill="#0068C8"/>
<path d="M6.4728 0.775635C5.44912 1.05157 4.50677 1.52542 3.68921 2.15379L6.4728 4.93738V0.775635Z" fill="#0068C8"/>
<path d="M10.6467 16.2244C11.6704 15.9485 12.6128 15.4747 13.4303 14.8463L10.6467 12.0627V16.2244Z" fill="#0068C8"/>
<path d="M12.1226 10.5871L14.9062 13.3707C15.5345 12.5532 16.0084 11.6108 16.2843 10.5871H12.1226Z" fill="#0068C8"/>
<path d="M16.4921 7.45653H9.60335H9.60331V0.567719C9.26172 0.52325 8.91347 0.5 8.55981 0.5C8.2061 0.5 7.85791 0.52325 7.51635 0.567719V7.45647V7.4565H0.627533C0.583064 7.79809 0.559814 8.14634 0.559814 8.5C0.559814 8.85372 0.583064 9.20191 0.627533 9.54347H7.51628H7.51631V16.4323C7.85791 16.4768 8.2061 16.5 8.55981 16.5C8.91347 16.5 9.26172 16.4768 9.60328 16.4323V9.54353V9.5435H16.4921C16.5366 9.20191 16.5598 8.85372 16.5598 8.5C16.5598 8.14634 16.5366 7.79809 16.4921 7.45653Z" fill="#D80027"/>
<path d="M10.6467 10.587L14.2166 14.1569C14.3808 13.9928 14.5374 13.8212 14.6869 13.6433L11.6305 10.587H10.6467V10.587Z" fill="#D80027"/>
<path d="M6.47273 10.587H6.47267L2.90283 14.1569C3.06696 14.3211 3.23855 14.4777 3.41642 14.6271L6.47273 11.5708V10.587Z" fill="#D80027"/>
<path d="M6.47274 6.41311V6.41305L2.90287 2.84314C2.73868 3.00726 2.58205 3.17886 2.43262 3.35673L5.48896 6.41308H6.47274V6.41311Z" fill="#D80027"/>
<path d="M10.6467 6.41314L14.2166 2.8432C14.0525 2.67902 13.8809 2.52239 13.703 2.37299L10.6467 5.42933V6.41314Z" fill="#D80027"/>
</g>
<defs>
<clipPath id="clip0">
<rect width="16" height="16" fill="white" transform="translate(0.559814 0.5)"/>
</clipPath>
</defs>
</svg>
