<svg width="16" height="16" viewBox="0 0 16 16" fill="none" xmlns="http://www.w3.org/2000/svg">
<mask id="mask0" mask-type="alpha" maskUnits="userSpaceOnUse" x="0" y="0" width="16" height="16">
<path d="M8 16C12.4183 16 16 12.4183 16 8C16 3.58172 12.4183 0 8 0C3.58172 0 0 3.58172 0 8C0 12.4183 3.58172 16 8 16Z" fill="white"/>
</mask>
<g mask="url(#mask0)">
<mask id="mask1" mask-type="alpha" maskUnits="userSpaceOnUse" x="-4" y="0" width="24" height="16">
<path d="M17.6 0H-1.59995C-2.48361 0 -3.19995 0.716344 -3.19995 1.6V14.4C-3.19995 15.2837 -2.48361 16 -1.59995 16H17.6C18.4837 16 19.2001 15.2837 19.2001 14.4V1.6C19.2001 0.716344 18.4837 0 17.6 0Z" fill="white"/>
</mask>
<g mask="url(#mask1)">
<path d="M17.4 0.200012H-1.4C-2.28366 0.200012 -3 0.916357 -3 1.80001V14.2C-3 15.0837 -2.28366 15.8 -1.4 15.8H17.4C18.2837 15.8 19 15.0837 19 14.2V1.80001C19 0.916357 18.2837 0.200012 17.4 0.200012Z" fill="white"/>
<path d="M19.2001 0H-3.19995V5.33333H19.2001V0Z" fill="#38BB56"/>
<path d="M19.2001 10.6666H-3.19995V16H19.2001V10.6666Z" fill="#DE1B27"/>
<path fill-rule="evenodd" clip-rule="evenodd" d="M-2.1333 4.53583C-2.1333 4.38717 -2.01915 4.26666 -1.86414 4.26666H-1.3358C-1.18714 4.26666 -1.06663 4.38081 -1.06663 4.53583V5.06416C-1.06663 5.21282 -1.18079 5.33333 -1.3358 5.33333H-1.86414C-2.01279 5.33333 -2.1333 5.21918 -2.1333 5.06416V4.53583ZM3.22978e-05 4.53583C3.22978e-05 4.38717 0.114184 4.26666 0.269197 4.26666H0.797534C0.94619 4.26666 1.0667 4.38081 1.0667 4.53583V5.06416C1.0667 5.21282 0.952547 5.33333 0.797534 5.33333H0.269197C0.120542 5.33333 3.22978e-05 5.21918 3.22978e-05 5.06416V4.53583ZM2.13337 4.53583C2.13337 4.38717 2.24752 4.26666 2.40253 4.26666H2.93087C3.07952 4.26666 3.20003 4.38081 3.20003 4.53583V5.06416C3.20003 5.21282 3.08588 5.33333 2.93087 5.33333H2.40253C2.25387 5.33333 2.13337 5.21918 2.13337 5.06416V4.53583ZM4.2667 4.53583C4.2667 4.38717 4.38085 4.26666 4.53586 4.26666H5.0642C5.21286 4.26666 5.33337 4.38081 5.33337 4.53583V5.06416C5.33337 5.21282 5.21921 5.33333 5.0642 5.33333H4.53586C4.38721 5.33333 4.2667 5.21918 4.2667 5.06416V4.53583ZM6.40003 4.53583C6.40003 4.38717 6.51418 4.26666 6.6692 4.26666H7.19753C7.34619 4.26666 7.4667 4.38081 7.4667 4.53583V5.06416C7.4667 5.21282 7.35255 5.33333 7.19753 5.33333H6.6692C6.52054 5.33333 6.40003 5.21918 6.40003 5.06416V4.53583ZM8.53337 4.53583C8.53337 4.38717 8.64752 4.26666 8.80253 4.26666H9.33087C9.47952 4.26666 9.60003 4.38081 9.60003 4.53583V5.06416C9.60003 5.21282 9.48588 5.33333 9.33087 5.33333H8.80253C8.65388 5.33333 8.53337 5.21918 8.53337 5.06416V4.53583ZM10.6667 4.53583C10.6667 4.38717 10.7809 4.26666 10.9359 4.26666H11.4642C11.6129 4.26666 11.7334 4.38081 11.7334 4.53583V5.06416C11.7334 5.21282 11.6192 5.33333 11.4642 5.33333H10.9359C10.7872 5.33333 10.6667 5.21918 10.6667 5.06416V4.53583ZM12.8 4.53583C12.8 4.38717 12.9142 4.26666 13.0692 4.26666H13.5975C13.7462 4.26666 13.8667 4.38081 13.8667 4.53583V5.06416C13.8667 5.21282 13.7525 5.33333 13.5975 5.33333H13.0692C12.9205 5.33333 12.8 5.21918 12.8 5.06416V4.53583ZM14.9334 4.53583C14.9334 4.38717 15.0475 4.26666 15.2025 4.26666H15.7309C15.8795 4.26666 16 4.38081 16 4.53583V5.06416C16 5.21282 15.8859 5.33333 15.7309 5.33333H15.2025C15.0539 5.33333 14.9334 5.21918 14.9334 5.06416V4.53583ZM17.0667 4.53583C17.0667 4.38717 17.1809 4.26666 17.3359 4.26666H17.8642C18.0129 4.26666 18.1334 4.38081 18.1334 4.53583V5.06416C18.1334 5.21282 18.0192 5.33333 17.8642 5.33333H17.3359C17.1872 5.33333 17.0667 5.21918 17.0667 5.06416V4.53583ZM-2.1333 10.9358C-2.1333 10.7872 -2.01915 10.6667 -1.86414 10.6667H-1.3358C-1.18714 10.6667 -1.06663 10.7808 -1.06663 10.9358V11.4642C-1.06663 11.6128 -1.18079 11.7333 -1.3358 11.7333H-1.86414C-2.01279 11.7333 -2.1333 11.6192 -2.1333 11.4642V10.9358ZM3.22978e-05 10.9358C3.22978e-05 10.7872 0.114184 10.6667 0.269197 10.6667H0.797534C0.94619 10.6667 1.0667 10.7808 1.0667 10.9358V11.4642C1.0667 11.6128 0.952547 11.7333 0.797534 11.7333H0.269197C0.120542 11.7333 3.22978e-05 11.6192 3.22978e-05 11.4642V10.9358ZM2.13337 10.9358C2.13337 10.7872 2.24752 10.6667 2.40253 10.6667H2.93087C3.07952 10.6667 3.20003 10.7808 3.20003 10.9358V11.4642C3.20003 11.6128 3.08588 11.7333 2.93087 11.7333H2.40253C2.25387 11.7333 2.13337 11.6192 2.13337 11.4642V10.9358ZM4.2667 10.9358C4.2667 10.7872 4.38085 10.6667 4.53586 10.6667H5.0642C5.21286 10.6667 5.33337 10.7808 5.33337 10.9358V11.4642C5.33337 11.6128 5.21921 11.7333 5.0642 11.7333H4.53586C4.38721 11.7333 4.2667 11.6192 4.2667 11.4642V10.9358ZM6.40003 10.9358C6.40003 10.7872 6.51418 10.6667 6.6692 10.6667H7.19753C7.34619 10.6667 7.4667 10.7808 7.4667 10.9358V11.4642C7.4667 11.6128 7.35255 11.7333 7.19753 11.7333H6.6692C6.52054 11.7333 6.40003 11.6192 6.40003 11.4642V10.9358ZM8.53337 10.9358C8.53337 10.7872 8.64752 10.6667 8.80253 10.6667H9.33087C9.47952 10.6667 9.60003 10.7808 9.60003 10.9358V11.4642C9.60003 11.6128 9.48588 11.7333 9.33087 11.7333H8.80253C8.65388 11.7333 8.53337 11.6192 8.53337 11.4642V10.9358ZM10.6667 10.9358C10.6667 10.7872 10.7809 10.6667 10.9359 10.6667H11.4642C11.6129 10.6667 11.7334 10.7808 11.7334 10.9358V11.4642C11.7334 11.6128 11.6192 11.7333 11.4642 11.7333H10.9359C10.7872 11.7333 10.6667 11.6192 10.6667 11.4642V10.9358ZM12.8 10.9358C12.8 10.7872 12.9142 10.6667 13.0692 10.6667H13.5975C13.7462 10.6667 13.8667 10.7808 13.8667 10.9358V11.4642C13.8667 11.6128 13.7525 11.7333 13.5975 11.7333H13.0692C12.9205 11.7333 12.8 11.6192 12.8 11.4642V10.9358ZM14.9334 10.9358C14.9334 10.7872 15.0475 10.6667 15.2025 10.6667H15.7309C15.8795 10.6667 16 10.7808 16 10.9358V11.4642C16 11.6128 15.8859 11.7333 15.7309 11.7333H15.2025C15.0539 11.7333 14.9334 11.6192 14.9334 11.4642V10.9358ZM17.0667 10.9358C17.0667 10.7872 17.1809 10.6667 17.3359 10.6667H17.8642C18.0129 10.6667 18.1334 10.7808 18.1334 10.9358V11.4642C18.1334 11.6128 18.0192 11.7333 17.8642 11.7333H17.3359C17.1872 11.7333 17.0667 11.6192 17.0667 11.4642V10.9358Z" fill="white" fill-opacity="0.5"/>
<path fill-rule="evenodd" clip-rule="evenodd" d="M6.3999 7.99999C6.3999 7.58486 6.55889 7.1951 6.83684 6.90118L7.22434 7.26764C7.03897 7.46366 6.93324 7.72271 6.93324 7.99999C6.93324 8.5891 7.4108 9.06666 7.9999 9.06666C8.58901 9.06666 9.06657 8.5891 9.06657 7.99999C9.06657 7.72842 8.9652 7.47434 8.78666 7.27967L9.17971 6.91918C9.44749 7.21116 9.5999 7.59349 9.5999 7.99999C9.5999 8.88365 8.88356 9.59999 7.9999 9.59999C7.11625 9.59999 6.3999 8.88365 6.3999 7.99999Z" fill="#D80915"/>
<path d="M8.53322 8.00001C8.53322 7.70546 8.29444 7.46667 7.99989 7.46667C7.70533 7.46667 7.46655 7.70546 7.46655 8.00001V9.06667C7.46655 9.36123 7.70533 9.60001 7.99989 9.60001C8.29444 9.60001 8.53322 9.36123 8.53322 9.06667V8.00001Z" fill="#D80915"/>
</g>
</g>
</svg>
