<svg width="17" height="17" viewBox="0 0 17 17" fill="none" xmlns="http://www.w3.org/2000/svg">
<g clip-path="url(#clip0)">
<path d="M8.55981 16.5C12.9781 16.5 16.5598 12.9183 16.5598 8.5C16.5598 4.08172 12.9781 0.5 8.55981 0.5C4.14154 0.5 0.559814 4.08172 0.559814 8.5C0.559814 12.9183 4.14154 16.5 8.55981 16.5Z" fill="#D80027"/>
<path d="M8.23245 7.03705L8.88886 7.94158L9.95189 7.59689L9.29445 8.50064L9.95076 9.40514L8.88811 9.05914L8.2307 9.96289L8.23139 8.84536L7.1687 8.49936L8.23176 8.15467L8.23245 7.03705Z" fill="white"/>
<path d="M6.44097 10.7608C5.19235 10.7608 4.1801 9.7486 4.1801 8.49997C4.1801 7.25135 5.19235 6.2391 6.44097 6.2391C6.83029 6.2391 7.1966 6.33757 7.51641 6.51085C7.01469 6.02016 6.32854 5.71735 5.57141 5.71735C4.0346 5.71735 2.78882 6.96316 2.78882 8.49994C2.78882 10.0367 4.03463 11.2825 5.57141 11.2825C6.3286 11.2825 7.01472 10.9797 7.51641 10.489C7.1966 10.6624 6.83029 10.7608 6.44097 10.7608Z" fill="white"/>
</g>
<defs>
<clipPath id="clip0">
<rect width="16" height="16" fill="white" transform="translate(0.559814 0.5)"/>
</clipPath>
</defs>
</svg>
