<svg width="17" height="17" viewBox="0 0 17 17" fill="none" xmlns="http://www.w3.org/2000/svg">
<path d="M8.55981 0.5C12.9779 0.5 16.5598 4.08192 16.5598 8.5C16.5598 12.9181 12.9777 16.5 8.55981 16.5C4.14189 16.5 0.559814 12.919 0.559814 8.5C0.559814 4.08096 4.14125 0.5 8.55981 0.5Z" fill="#53AE94"/>
<path d="M9.54715 7.4339V6.24382H12.2686V4.43054H4.85803V6.24382H7.57979V7.43294C5.36779 7.53454 3.70459 7.97262 3.70459 8.49742C3.70459 9.02222 5.36859 9.4603 7.57979 9.56254V13.3745H9.54779V9.56222C11.7558 9.4603 13.4156 9.02254 13.4156 8.49822C13.4156 7.9739 11.7558 7.53614 9.54779 7.43422L9.54715 7.4339ZM9.54779 9.23934V9.23838C9.49227 9.2419 9.20699 9.25902 8.57179 9.25902C8.06395 9.25902 7.70667 9.24462 7.58075 9.23806V9.23966C5.62651 9.1531 4.16779 8.81278 4.16779 8.40558C4.16779 7.99838 5.62667 7.65854 7.58075 7.57182V8.90062C7.70875 8.90942 8.07483 8.93102 8.58011 8.93102C9.18699 8.93102 9.49211 8.90574 9.54811 8.90062V7.57182C11.4985 7.6587 12.9539 7.99934 12.9539 8.4051C12.9539 8.81086 11.4979 9.15166 9.54811 9.23854" fill="white"/>
</svg>
